# xmcd
#
# Track frame offsets:
#	150
#	11357
#	24185
#	36605
#	50135
#	64620
#	75845
#	88350
#	100305
#	114565
#	127860
#	138655
#	152545
#	165020
#
# Disc length: 2348 seconds
#
# Revision: 0
# Processed by: cddbd v1.4PL0 Copyright (c) Steve Scherf et al.
# Submitted via: EasyCDDAExtractor 4.6.0.1
#
DISCID=a5092a0e
DTITLE=Teodoro and Sampaio - O Gaviao
DYEAR=1900
DGENRE=county
TTITLE0=O Gaviao
TTITLE1=Olhos Feiticieiros - Recuerdos De Ypacarai
TTITLE2=Velho Gala
TTITLE3=Caso Proibido
TTITLE4=Briguei Com Ela
TTITLE5=Cheira Chumbo
TTITLE6=O Caoracao De Quem Amo
TTITLE7=Cantaram Minha Vizinha
TTITLE8=Sertanejao
TTITLE9=O Errado Sou Eu
TTITLE10=Momentos Felizes
TTITLE11=Grito De Socorro
TTITLE12=Na Barra Da Saia
TTITLE13=Fala Pra Ele
EXTD=
EXTT0=
EXTT1=
EXTT2=
EXTT3=
EXTT4=
EXTT5=
EXTT6=
EXTT7=
EXTT8=
EXTT9=
EXTT10=
EXTT11=
EXTT12=
EXTT13=
PLAYORDER=
